Coordinates
version=1
nRows=13
nColumns=40
inDegrees=yes

Units are S.I. units (second, meters, Newtons, ...)
Angles are in degrees.

endheader
time	pelvis_tilt	pelvis_list	pelvis_rotation	pelvis_tx	pelvis_ty	pelvis_tz	hip_flexion_r	hip_adduction_r	hip_rotation_r	knee_angle_r	knee_angle_r_beta	ankle_angle_r	subtalar_angle_r	mtp_angle_r	hip_flexion_l	hip_adduction_l	hip_rotation_l	knee_angle_l	knee_angle_l_beta	ankle_angle_l	subtalar_angle_l	mtp_angle_l	lumbar_extension	lumbar_bending	lumbar_rotation	arm_flex_r	arm_add_r	arm_rot_r	elbow_flex_r	pro_sup_r	wrist_flex_r	wrist_dev_r	arm_flex_l	arm_add_l	arm_rot_l	elbow_flex_l	pro_sup_l	wrist_flex_l	wrist_dev_l
      2.29000000	      4.86786078	     -4.96974088	     -1.08942899	      0.87291643	      0.90259752	      1.45412784	     -9.19118052	      5.55327611	    -18.95361260	    -17.29476918	     -0.30185067	     10.39405399	     10.13619888	     -6.71155383	     19.58482254	      8.11949049	     12.07826873	    -22.37226488	     -0.39046968	     -1.19324486	      2.40093674	    -10.81729732	    -11.53352752	      5.37511575	      6.36463198	     16.82172245	    -14.22333099	     17.56344026	     24.45720430	     89.95437384	      0.00000000	      0.00000000	     -0.98208053	      7.02563182	    -13.62970935	     14.88676750	     89.95437384	      0.00000000	      0.00000000
      2.30000000	      4.65206473	     -4.91971276	     -1.48712964	      0.88164145	      0.90153176	      1.45377652	     -9.39947525	      5.32025284	    -18.49111414	    -17.66878828	     -0.30837853	     10.57855035	     10.15909603	     -6.83366725	     19.58065532	      8.06447289	     12.97873955	    -19.67688971	     -0.34342651	     -1.81365016	      1.64994536	    -10.59468947	    -11.47017027	      5.26684144	      6.62532228	     17.18046499	    -14.40576741	     17.74253794	     25.21974657	     89.95437384	      0.00000000	      0.00000000	     -1.54187070	      7.00024354	    -13.50521908	     14.70471394	     89.95437384	      0.00000000	      0.00000000
      2.31000000	      4.73539691	     -4.77589057	     -2.08204280	      0.89100393	      0.90087911	      1.45361457	    -10.02314268	      4.88564960	    -18.15996184	    -17.95081807	     -0.31330088	     10.84914245	     10.36399812	     -7.12270574	     19.09886979	      8.03912709	     14.61072787	    -17.18213713	     -0.29988487	     -1.99683653	      0.41276937	    -10.46373751	    -11.66790130	      5.00683874	      7.07016195	     17.51038412	    -14.55484661	     18.08046325	     25.84550432	     89.95437384	      0.00000000	      0.00000000	     -2.11449023	      6.92830855	    -13.01769927	     14.51468483	     89.95437384	      0.00000000	      0.00000000
      2.32000000	      4.33488999	     -4.95046501	     -2.41984780	      0.89975833	      0.89936869	      1.45308467	    -10.01830086	      4.89091975	    -17.76832596	    -18.31430046	     -0.31964484	     10.81784871	     10.37633800	     -7.18996684	     19.43998282	      8.18397076	     15.10876303	    -15.28090760	     -0.26670215	     -1.63786848	     -0.24663195	    -10.42474885	    -11.37415543	      5.18222288	      7.21271948	     17.84395243	    -14.62814127	     18.08367770	     26.38363669	     89.95437384	      0.00000000	      0.00000000	     -2.72195750	      6.88091611	    -12.90493228	     14.43105098	     89.95437384	      0.00000000	      0.00000000
      2.33000000	      4.03119940	     -4.84002121	     -2.91970550	      0.90891254	      0.89806345	      1.45256461	    -10.05389842	      4.53517030	    -17.19317744	    -18.85230738	     -0.32903484	     10.97879808	     10.25612361	     -7.29003590	     19.47367898	      8.04928887	     15.79024009	    -13.42568825	     -0.23432246	     -1.61106966	     -0.93746074	    -10.32892047	    -11.15294199	      5.01821735	      7.49524596	     18.09050633	    -14.69444927	     18.12043085	     26.90214297	     89.95437384	      0.00000000	      0.00000000	     -3.24888848	      6.81325316	    -12.78312070	     14.19835065	     89.95437384	      0.00000000	      0.00000000
      2.34000000	      3.99526423	     -4.63767103	     -3.38812722	      0.91838325	      0.89723362	      1.45208471	    -10.43770051	      4.07047999	    -16.68933387	    -19.31560754	     -0.33712095	     11.19990117	     10.10149166	     -7.45413112	     19.17810933	      7.83143414	     16.78353123	    -11.87949192	     -0.20733625	     -1.94702691	     -1.54088326	    -10.18731720	    -11.19776923	      4.71244110	      7.73675916	     18.31873408	    -14.71367184	     18.24993790	     27.35261806	     89.95437384	      0.00000000	      0.00000000	     -3.63218137	      6.76727195	    -12.64097524	     13.77268374	     89.95437384	      0.00000000	      0.00000000
      2.35000000	      3.85519760	     -4.41686098	     -4.13362139	      0.92794434	      0.89622002	      1.45178940	    -10.59789245	      3.50014119	    -15.92919341	    -19.94829973	     -0.34816351	     11.23852620	      9.92873810	     -7.60557740	     19.00498698	      7.66745848	     17.75217053	    -10.95206486	     -0.19114959	     -1.86243549	     -2.04401824	    -10.07321266	    -11.10148784	      4.39233173	      8.18399578	     18.51331929	    -14.66934557	     18.19576082	     27.67209706	     89.95437384	      0.00000000	      0.00000000	     -4.09406319	      6.68728767	    -12.60061772	     13.44369556	     89.95437384	      0.00000000	      0.00000000
      2.36000000	      3.62351542	     -4.43343203	     -4.31832502	      0.93763400	      0.89508260	      1.45094230	    -10.79721807	      3.33967017	    -15.61978118	    -20.33966738	     -0.35499416	     11.11663694	      9.76040034	     -7.56466027	     19.18340923	      7.59844214	     17.76614023	    -10.76598371	     -0.18790186	     -1.55785718	     -2.18291344	    -10.00042630	    -10.88095884	      4.40125236	      8.10738022	     18.66244589	    -14.58717277	     18.17443971	     27.90985540	     89.95437384	      0.00000000	      0.00000000	     -4.52833104	      6.65758662	    -12.63590002	     13.16014175	     89.95437384	      0.00000000	      0.00000000
      2.37000000	      3.51451945	     -4.25380122	     -4.76382845	      0.94775069	      0.89416035	      1.45026571	    -10.99962739	      2.88375016	    -14.94618203	    -20.98965224	     -0.36633854	     10.96599541	      9.52634058	     -7.52788011	     19.07093236	      7.34237577	     17.69763987	    -10.92693292	     -0.19071096	     -1.10587116	     -2.34154581	     -9.92712054	    -10.73130634	      4.15525589	      8.25063164	     18.73564481	    -14.46636088	     18.16544254	     28.03973459	     89.95437384	      0.00000000	      0.00000000	     -4.86871182	      6.59895259	    -12.72934014	     12.63910078	     89.95437384	      0.00000000	      0.00000000
      2.38000000	      3.42824563	     -4.02819014	     -5.18829609	      0.95808198	      0.89335078	      1.44954815	    -11.19785417	      2.35943213	    -14.36426083	    -21.69815852	     -0.37870431	     10.61299392	      9.13404539	     -7.39819725	     19.04797386	      7.05959852	     17.43209742	    -11.75259668	     -0.20512151	     -1.24694415	     -2.19431143	     -9.69416091	    -10.60475595	      3.85640643	      8.39273088	     18.66489842	    -14.36772545	     18.07669786	     28.31596389	     89.95437384	      0.00000000	      0.00000000	     -5.31014694	      6.60272539	    -12.76674899	     12.44671271	     89.95437384	      0.00000000	      0.00000000
      2.39000000	      3.47080197	     -3.72591099	     -5.67143647	      0.96881545	      0.89281275	      1.44869454	    -11.52223083	      1.69264893	    -13.62693388	    -22.43390498	     -0.39154551	     10.37629033	      8.75273094	     -7.40802255	     18.68837637	      6.65566661	     17.48336665	    -12.53414571	     -0.21876211	     -1.62540332	     -1.89924926	     -9.45344309	    -10.53516670	      3.48359779	      8.61528589	     18.49645795	    -14.26271808	     17.89177811	     28.48363332	     89.95437384	      0.00000000	      0.00000000	     -5.59172196	      6.55994463	    -13.03677685	     11.97874292	     89.95437384	      0.00000000	      0.00000000
      2.40000000	      3.36918461	     -3.53277021	     -5.94067760	      0.97965866	      0.89213948	      1.44773243	    -11.67661824	      1.22808564	    -12.98463325	    -23.17826781	     -0.40453709	      9.87675778	      8.40692405	     -7.24540491	     18.60969499	      6.30619441	     16.72270440	    -13.49010399	     -0.23544673	     -2.92040575	     -1.69809554	     -9.04908509	    -10.31196926	      3.24547633	      8.56168191	     18.28784380	    -14.09360540	     17.74877102	     28.62310134	     89.95437384	      0.00000000	      0.00000000	     -5.98511999	      6.57339355	    -13.13103445	     11.75073193	     89.95437384	      0.00000000	      0.00000000
      2.41000000	      3.48950762	     -3.00578561	     -6.14633014	      0.99043386	      0.89228710	      1.44629496	    -11.96157957	      0.32124098	    -12.54508525	    -24.01984935	     -0.41922546	      9.22350983	      8.02042159	     -7.32104658	     17.86578488	      5.38673906	     15.93767380	    -13.14108700	     -0.22935524	     -5.78976344	     -0.87909804	     -8.69737051	    -10.30160239	      2.65340330	      8.53585008	     18.02749502	    -13.77449228	     16.94846481	     28.51248070	     89.95437384	      0.00000000	      0.00000000	     -6.05796876	      6.61459444	    -14.08723110	     11.19948292	     89.95437384	      0.00000000	      0.00000000
